<?xml version="1.0" encoding="UTF-8" standalone="no"?>
<!-- Created with Inkscape (http://www.inkscape.org/) -->

<svg
   xmlns:dc="http://purl.org/dc/elements/1.1/"
   xmlns:cc="http://creativecommons.org/ns#"
   xmlns:rdf="http://www.w3.org/1999/02/22-rdf-syntax-ns#"
   xmlns:svg="http://www.w3.org/2000/svg"
   xmlns="http://www.w3.org/2000/svg"
   xmlns:sodipodi="http://sodipodi.sourceforge.net/DTD/sodipodi-0.dtd"
   xmlns:inkscape="http://www.inkscape.org/namespaces/inkscape"
   version="1.0"
   width="500"
   height="400"
   id="svg2"
   sodipodi:docname="Manitoba_location_map.svg"
   inkscape:version="0.92.2 (5c3e80d, 2017-08-06)">
  <sodipodi:namedview
     pagecolor="#ffffff"
     bordercolor="#666666"
     borderopacity="1"
     objecttolerance="10"
     gridtolerance="10"
     guidetolerance="10"
     inkscape:pageopacity="0"
     inkscape:pageshadow="2"
     inkscape:window-width="1920"
     inkscape:window-height="976"
     id="namedview14"
     showgrid="false"
     fit-margin-top="0"
     fit-margin-left="0"
     fit-margin-right="0"
     fit-margin-bottom="0"
     inkscape:zoom="2.0521739"
     inkscape:cx="501.30523"
     inkscape:cy="229.57306"
     inkscape:window-x="0"
     inkscape:window-y="27"
     inkscape:window-maximized="1"
     inkscape:current-layer="svg2" />
  <metadata
     id="metadata7">
    <rdf:RDF>
      <cc:Work
         rdf:about="">
        <dc:format>image/svg+xml</dc:format>
        <dc:type
           rdf:resource="http://purl.org/dc/dcmitype/StillImage" />
        <dc:creator>
          <cc:Agent>
            <dc:title>STyx</dc:title>
          </cc:Agent>
        </dc:creator>
        <dc:date>2007-02-04</dc:date>
        <cc:license
           rdf:resource="http://creativecommons.org/licenses/GPL/2.0/" />
        <dc:subject>
          <rdf:Bag>
            <rdf:li>Canada</rdf:li>
          </rdf:Bag>
        </dc:subject>
        <dc:source>Carte_administrative_du_Canada.png</dc:source>
        <dc:title></dc:title>
      </cc:Work>
      <cc:License
         rdf:about="http://creativecommons.org/licenses/GPL/2.0/">
        <cc:permits
           rdf:resource="http://web.resource.org/cc/Reproduction" />
        <cc:permits
           rdf:resource="http://web.resource.org/cc/Distribution" />
        <cc:requires
           rdf:resource="http://web.resource.org/cc/Notice" />
        <cc:permits
           rdf:resource="http://web.resource.org/cc/DerivativeWorks" />
        <cc:requires
           rdf:resource="http://web.resource.org/cc/ShareAlike" />
        <cc:requires
           rdf:resource="http://web.resource.org/cc/SourceCode" />
      </cc:License>
    </rdf:RDF>
  </metadata>
  <defs
     id="defs5" />
  <rect
     width="500"
     height="400"
     x="0"
     y="0"
     id="ocean"
     style="fill:#c6ecff;fill-opacity:1;stroke:none" />
  <g
     transform="translate(-301.14318,-623.58198)"
     id="Land"
     style="fill:#fefee9;fill-opacity:1">
    <g
       id="Manitoba"
       style="fill:#fefee9;fill-opacity:1">
      <path
         d="m 626.34396,763.46434 0.0935,0.004 0.34375,-0.1875 -0.15625,0.1875 L 627,763.5 626.59375,764.0625 575.5,831.5 l -22,23 -0.5,78.1875 -0.5,-0.0937 v 8.40625 H 541 l -42.5,-1.5 -35.34375,-2.9375 L 463,937 l -0.25,-0.46875 -0.25,-0.0312 v -0.21875 l 0.0625,-1.3125 L 469.5,780.5 472.3139,756.03143 510,765"
         id="path1518"
         style="fill:#fefee9;fill-opacity:1;stroke:#636363;stroke-width:1px;stroke-opacity:0.50196078"
         inkscape:connector-curvature="0" />
      <path
         d="M 557.02735,698.37512 557,697.5 529,698 495.5,696 480.21875,694.09375 480.0625,694.0625 479.5,693 l -0.71875,7.15625 -3.96875,34.4375"
         id="path1525"
         style="fill:#fefee9;fill-opacity:1;stroke:#636363;stroke-width:1px;stroke-opacity:0.50196078"
         inkscape:connector-curvature="0" />
      <path
         d="M 626.34396,763.46434 616.5,763 l -7,-5 -9,-1.5 -10,6.5 -7,-2.5 1.5,-3 -4.5,-20.5 -4,-5 1.5,-6 -4.5,-1.5 -2.5,2 -11,-0.5 v -3 l -3.5,-4 1,-5.5 -0.47265,-15.12488 L 530.5,768.5"
         id="path1523"
         style="fill:#fefee9;fill-opacity:1;stroke:#27aaea;stroke-width:1px;stroke-opacity:1"
         inkscape:connector-curvature="0" />
      <path
         d="m 557,698.5 -1,12 -23.5,63 -60,-15 4,-26.5 40.25,-30.5 z"
         id="mask1"
         style="fill:#fefee9;fill-opacity:1;stroke:none"
         inkscape:connector-curvature="0" />
      <path
         d="M 476.05944,734.94827 478,735.5 l -2,5.5 3,-1 h 2 l -7.1875,9.9375 1.1875,4.5625 -2.625,1 -0.0611,0.53141"
         id="path1495"
         style="display:inline;overflow:visible;visibility:visible;fill:#c6ecff;fill-opacity:1;fill-rule:nonzero;stroke:#27aaea;stroke-width:1px;stroke-linecap:butt;stroke-linejoin:miter;stroke-miterlimit:4;stroke-dasharray:none;stroke-dashoffset:0;stroke-opacity:1;marker:none"
         inkscape:connector-curvature="0" />
      <path
         d="m 516.5,820 1.5,4.5 -2.5,1 0.5,3.5 1,1 0.5,4.5 0.5,1.5 -0.5,2.5 3.5,3.5 2.5,7.5 1.5,11.5 2.5,4.5 0.5,5 2.5,4 1,6.5 5,9.5 -1,2 -0.5,6.5 0.5,3.5 -2.5,2 -2.5,4.5 -2,-0.5 -1,-9.5 1,-4 1,-5 -1.5,-1.5 2,-6 -1,-2 -1.5,0.5 -2.5,6 -1,-1 -0.5,-6.5 1,-1.5 v -1.5 l -4.5,-3 0.5,-3 h -2 l -2.5,4.5 -2,-1 -1.5,-7 -3.5,-1.5 -1,-2.5 -0.5,-2.5 -2.5,-3 0.5,-1 -3,-3 1,-2 h 3.5 l 1.5,-1 v -1 l -4.5,-0.5 -2.5,1 -3,-6 7,-10.5 -0.5,-4 8.5,4 1.5,-2.5 -2.5,-2 0.5,-4 -3,-1.5 z"
         id="path1506"
         style="display:inline;overflow:visible;visibility:visible;fill:#c6ecff;fill-opacity:1;fill-rule:nonzero;stroke:#27aaea;stroke-width:1px;stroke-linecap:butt;stroke-linejoin:miter;stroke-miterlimit:4;stroke-dasharray:none;stroke-dashoffset:0;stroke-opacity:1;marker:none"
         inkscape:connector-curvature="0" />
    </g>
  </g>
</svg>
