<?xml version="1.0" encoding="UTF-8" standalone="no"?>
<!-- Created with Inkscape (http://www.inkscape.org/) -->

<svg
   xmlns:dc="http://purl.org/dc/elements/1.1/"
   xmlns:cc="http://creativecommons.org/ns#"
   xmlns:rdf="http://www.w3.org/1999/02/22-rdf-syntax-ns#"
   xmlns:svg="http://www.w3.org/2000/svg"
   xmlns="http://www.w3.org/2000/svg"
   xmlns:sodipodi="http://sodipodi.sourceforge.net/DTD/sodipodi-0.dtd"
   xmlns:inkscape="http://www.inkscape.org/namespaces/inkscape"
   version="1.0"
   width="158.03444"
   height="271.77243"
   id="svg2"
   sodipodi:docname="Alberta_location_map.svg"
   inkscape:version="0.92.2 (5c3e80d, 2017-08-06)">
  <sodipodi:namedview
     pagecolor="#ffffff"
     bordercolor="#666666"
     borderopacity="1"
     objecttolerance="10"
     gridtolerance="10"
     guidetolerance="10"
     inkscape:pageopacity="0"
     inkscape:pageshadow="2"
     inkscape:window-width="1920"
     inkscape:window-height="976"
     id="namedview10"
     showgrid="false"
     fit-margin-top="0"
     fit-margin-left="0"
     fit-margin-right="0"
     fit-margin-bottom="0"
     inkscape:zoom="1.026087"
     inkscape:cx="-117.71899"
     inkscape:cy="-36.022575"
     inkscape:window-x="0"
     inkscape:window-y="27"
     inkscape:window-maximized="1"
     inkscape:current-layer="svg2" />
  <metadata
     id="metadata7">
    <rdf:RDF>
      <cc:Work
         rdf:about="">
        <dc:format>image/svg+xml</dc:format>
        <dc:type
           rdf:resource="http://purl.org/dc/dcmitype/StillImage" />
        <dc:creator>
          <cc:Agent>
            <dc:title>STyx</dc:title>
          </cc:Agent>
        </dc:creator>
        <dc:date>2007-02-04</dc:date>
        <cc:license
           rdf:resource="http://creativecommons.org/licenses/GPL/2.0/" />
        <dc:subject>
          <rdf:Bag>
            <rdf:li>Canada</rdf:li>
          </rdf:Bag>
        </dc:subject>
        <dc:source>Carte_administrative_du_Canada.png</dc:source>
        <dc:title></dc:title>
      </cc:Work>
      <cc:License
         rdf:about="http://creativecommons.org/licenses/GPL/2.0/">
        <cc:permits
           rdf:resource="http://web.resource.org/cc/Reproduction" />
        <cc:permits
           rdf:resource="http://web.resource.org/cc/Distribution" />
        <cc:requires
           rdf:resource="http://web.resource.org/cc/Notice" />
        <cc:permits
           rdf:resource="http://web.resource.org/cc/DerivativeWorks" />
        <cc:requires
           rdf:resource="http://web.resource.org/cc/ShareAlike" />
        <cc:requires
           rdf:resource="http://web.resource.org/cc/SourceCode" />
      </cc:License>
    </rdf:RDF>
  </metadata>
  <defs
     id="defs5" />
  <rect
     width="500"
     height="400"
     x="-168.16048"
     y="-65.620995"
     id="ocean"
     style="fill:#c6ecff;fill-opacity:1;stroke:none" />
  <g
     transform="translate(-236.46557,-644.84133)"
     id="Land"
     style="fill:#fefee9;fill-opacity:1">
    <g
       id="Alberta"
       style="fill:#fefee9;fill-opacity:1">
      <path
         d="m 290,645.5 -0.25,0.78125 L 289,646 237.5,771.5 238.125,771.125 241,774 l 2.375,1.5625 -4.375,2.46875 5.0625,6.03125 -0.9375,1.53125 5.09375,2.53125 -1.9375,4.03125 5.59375,7.03125 -0.4375,8.53125 3.59375,2.53125 0.125,5.28125 2.59375,1.25 3.625,5.28125 0.125,5.75 4.625,1.28125 -0.375,8.75 3.59375,6.78125 2.46875,4.125 -1.0625,4.125 4.46875,7.625 4.4375,5.125 -1.0625,9.625 -3.03125,11.625 3.9375,7.625 0.5,6 21,6 36,9.5 52,-215.5 0.5625,-6.0625 L 390.5,694 393.75,680.9375 394,680.5 V 680 l -31,-9 -37,-11.5 z"
         id="path2249"
         style="fill:#fefee9;fill-opacity:1;stroke:#636363;stroke-width:1px;stroke-opacity:0.50196078"
         inkscape:connector-curvature="0" />
      <path
         d="m 390,693.5 -5.5,3 -6,4.5 -1.5,2 -3,-1 -1.5,1 0.5,1.5 3,0.5 3,2 4,-4 3,-2 4,-1"
         id="path1494"
         style="fill:#c6ecff;fill-opacity:1;stroke:#27aaea;stroke-width:1px;stroke-opacity:1"
         inkscape:connector-curvature="0" />
    </g>
  </g>
</svg>
