<?xml version="1.0" encoding="UTF-8" standalone="no"?>
<!-- Created with Inkscape (http://www.inkscape.org/) -->

<svg
   xmlns:dc="http://purl.org/dc/elements/1.1/"
   xmlns:cc="http://creativecommons.org/ns#"
   xmlns:rdf="http://www.w3.org/1999/02/22-rdf-syntax-ns#"
   xmlns:svg="http://www.w3.org/2000/svg"
   xmlns="http://www.w3.org/2000/svg"
   xmlns:sodipodi="http://sodipodi.sourceforge.net/DTD/sodipodi-0.dtd"
   xmlns:inkscape="http://www.inkscape.org/namespaces/inkscape"
   version="1.0"
   width="500"
   height="400"
   id="svg2"
   sodipodi:docname="Yukon_location_map.svg"
   inkscape:version="0.92.2 (5c3e80d, 2017-08-06)">
  <sodipodi:namedview
     pagecolor="#ffffff"
     bordercolor="#666666"
     borderopacity="1"
     objecttolerance="10"
     gridtolerance="10"
     guidetolerance="10"
     inkscape:pageopacity="0"
     inkscape:pageshadow="2"
     inkscape:window-width="1920"
     inkscape:window-height="976"
     id="namedview11"
     showgrid="false"
     fit-margin-top="0"
     fit-margin-left="0"
     fit-margin-right="0"
     fit-margin-bottom="0"
     inkscape:zoom="1.026087"
     inkscape:cx="324.42351"
     inkscape:cy="202.68599"
     inkscape:window-x="0"
     inkscape:window-y="27"
     inkscape:window-maximized="1"
     inkscape:current-layer="svg2" />
  <metadata
     id="metadata7">
    <rdf:RDF>
      <cc:Work
         rdf:about="">
        <dc:format>image/svg+xml</dc:format>
        <dc:type
           rdf:resource="http://purl.org/dc/dcmitype/StillImage" />
        <dc:creator>
          <cc:Agent>
            <dc:title>STyx</dc:title>
          </cc:Agent>
        </dc:creator>
        <dc:date>2007-02-04</dc:date>
        <cc:license
           rdf:resource="http://creativecommons.org/licenses/GPL/2.0/" />
        <dc:subject>
          <rdf:Bag>
            <rdf:li>Canada</rdf:li>
          </rdf:Bag>
        </dc:subject>
        <dc:source>Carte_administrative_du_Canada.png</dc:source>
        <dc:title></dc:title>
      </cc:Work>
      <cc:License
         rdf:about="http://creativecommons.org/licenses/GPL/2.0/">
        <cc:permits
           rdf:resource="http://web.resource.org/cc/Reproduction" />
        <cc:permits
           rdf:resource="http://web.resource.org/cc/Distribution" />
        <cc:requires
           rdf:resource="http://web.resource.org/cc/Notice" />
        <cc:permits
           rdf:resource="http://web.resource.org/cc/DerivativeWorks" />
        <cc:requires
           rdf:resource="http://web.resource.org/cc/ShareAlike" />
        <cc:requires
           rdf:resource="http://web.resource.org/cc/SourceCode" />
      </cc:License>
    </rdf:RDF>
  </metadata>
  <defs
     id="defs5" />
  <rect
     width="500"
     height="400"
     x="0"
     y="0"
     id="ocean"
     style="fill:#c6ecff;fill-opacity:1;stroke:none" />
  <g
     transform="translate(72,-306)"
     id="Land"
     style="fill:#fefee9;fill-opacity:1">
    <g
       id="Yukon"
       style="fill:#fefee9;fill-opacity:1">
      <path
         d="m 252.5,403 -5,-5 -1.5,-4 v -6 l -1.5,-1 0.5,-6 -2.28512,-3.24728 -6.78511,-11.74727 -118.28512,162.25272 0.71488,8.25272"
         id="path1559"
         style="fill:#fefee9;fill-opacity:1;fill-rule:evenodd;stroke:#27aaea;stroke-width:1px;stroke-opacity:1"
         inkscape:connector-curvature="0" />
      <path
         d="M 113.5,539.46875 V 540 l 24.75,20.25 36.25,25.25 34,20.5 44,22.5 v 0 l -1,-17.5 3,-1 -1.5,-2.5 -9.5,-2 -3,-4 -5.5,-0.5 -4,-2 0.5,-7 4.5,-6 -3.5,-4.5 -2,-17 H 226 l -2,-3.5 2,-2.5 1.5,-3.5 v -10 l 3.5,-3 -1.5,-6.5 5.5,-1.5 -1.5,-7 3,-3 -5,-3.5 2,-7.5 0.5,-2 -5,-5 1.5,-1 -2,-2.5 2,-3 -2.5,-4 4,-5 -0.5,-2.5 1.5,-1.5 5,-2.5 2,0.5 3.5,-11 -4.5,-0.5 -2,-3.5 h -2 l -1,-1.5 7,-10 3,-9 -8.5,-8.5 -6.5,-4.5 2,-0.5 5,-8 0.5,-3 16,-21.5 v 0"
         id="path1554"
         style="fill:#fefee9;fill-opacity:1;fill-rule:evenodd;stroke:#636363;stroke-width:1px;stroke-opacity:0.50196078"
         inkscape:connector-curvature="0" />
      <path
         d="M 235.85952,368.01089 235.5,367.5 101,521 l 3.5,4 2,-0.5 2,5 h 4.5 l 6,5 -5.5,1 v 3.96875"
         id="Yukon1"
         style="fill:#fefee9;fill-opacity:1;fill-rule:evenodd;stroke:#646464;stroke-width:1.875px;stroke-opacity:1"
         inkscape:connector-curvature="0" />
    </g>
  </g>
</svg>
