<?xml version="1.0" encoding="UTF-8" standalone="no"?>
<!-- Created with Inkscape (http://www.inkscape.org/) -->

<svg
   xmlns:dc="http://purl.org/dc/elements/1.1/"
   xmlns:cc="http://creativecommons.org/ns#"
   xmlns:rdf="http://www.w3.org/1999/02/22-rdf-syntax-ns#"
   xmlns:svg="http://www.w3.org/2000/svg"
   xmlns="http://www.w3.org/2000/svg"
   xmlns:sodipodi="http://sodipodi.sourceforge.net/DTD/sodipodi-0.dtd"
   xmlns:inkscape="http://www.inkscape.org/namespaces/inkscape"
   version="1.0"
   width="500"
   height="400"
   id="svg2"
   sodipodi:docname="Ontario_location_map.svg"
   inkscape:version="0.92.2 (5c3e80d, 2017-08-06)">
  <sodipodi:namedview
     pagecolor="#ffffff"
     bordercolor="#666666"
     borderopacity="1"
     objecttolerance="10"
     gridtolerance="10"
     guidetolerance="10"
     inkscape:pageopacity="0"
     inkscape:pageshadow="2"
     inkscape:window-width="1920"
     inkscape:window-height="976"
     id="namedview13"
     showgrid="false"
     fit-margin-top="0"
     fit-margin-left="0"
     fit-margin-right="0"
     fit-margin-bottom="0"
     inkscape:zoom="2.0521739"
     inkscape:cx="136.01169"
     inkscape:cy="173.15236"
     inkscape:window-x="0"
     inkscape:window-y="27"
     inkscape:window-maximized="1"
     inkscape:current-layer="svg2" />
  <metadata
     id="metadata7">
    <rdf:RDF>
      <cc:Work
         rdf:about="">
        <dc:format>image/svg+xml</dc:format>
        <dc:type
           rdf:resource="http://purl.org/dc/dcmitype/StillImage" />
        <dc:creator>
          <cc:Agent>
            <dc:title>STyx</dc:title>
          </cc:Agent>
        </dc:creator>
        <dc:date>2007-02-04</dc:date>
        <cc:license
           rdf:resource="http://creativecommons.org/licenses/GPL/2.0/" />
        <dc:subject>
          <rdf:Bag>
            <rdf:li>Canada</rdf:li>
          </rdf:Bag>
        </dc:subject>
        <dc:source>Carte_administrative_du_Canada.png</dc:source>
        <dc:title></dc:title>
      </cc:Work>
      <cc:License
         rdf:about="http://creativecommons.org/licenses/GPL/2.0/">
        <cc:permits
           rdf:resource="http://web.resource.org/cc/Reproduction" />
        <cc:permits
           rdf:resource="http://web.resource.org/cc/Distribution" />
        <cc:requires
           rdf:resource="http://web.resource.org/cc/Notice" />
        <cc:permits
           rdf:resource="http://web.resource.org/cc/DerivativeWorks" />
        <cc:requires
           rdf:resource="http://web.resource.org/cc/ShareAlike" />
        <cc:requires
           rdf:resource="http://web.resource.org/cc/SourceCode" />
      </cc:License>
    </rdf:RDF>
  </metadata>
  <defs
     id="defs5" />
  <rect
     width="500"
     height="400"
     x="0"
     y="0"
     id="ocean"
     style="fill:#c6ecff;fill-opacity:1;stroke:none" />
  <g
     transform="translate(-467.88136,-722.48305)"
     id="Land"
     style="fill:#fefee9;fill-opacity:1">
    <g
       id="Ontario"
       style="fill:#fefee9;fill-opacity:1">
      <path
         d="m 741.5,992 h 8.5 l 2,-2 5.5,-0.5 2.5,-1.5 2,2 2.5,-1 0.5,6 -2.5,2.5 -12,-3 H 742 Z"
         id="ile"
         style="fill:#fefee9;fill-opacity:1;stroke:#27aaea;stroke-width:1px;stroke-opacity:1"
         inkscape:connector-curvature="0" />
      <path
         d="m 766.5,858.5 0.5,7.5 -0.125,0.0312 L 795,995.5 l 61.46875,6.7813 4.03125,-1.7813 3,-5.5 0.5,-3 2.5,-3 5.5,-8.5 4.125,-1.6875 3.8125,-0.78125 L 880,978 l -2,-8 -1,-4.5 -7.5,-0.5 -14,10 -3.59375,1.96875 -2.84375,0.84375 L 843,976.5 l -3,-5.5 -6.5,1 -7.5,-5 -16.5,0.5 -9.5,-5.5 -8.5,-8.5 -3.5,-8.5 -20.53125,-82.625 -0.0312,0.28125 -0.43755,-2.125 z"
         id="path1544"
         style="fill:#fefee9;fill-opacity:1;stroke:#f4e2ba;stroke-width:1px;stroke-opacity:1"
         inkscape:connector-curvature="0" />
      <path
         d="m 652,906.5 v 7 l 2,2 -0.5,8 -1,1.5 -2,1 -1.5,-1.5 -2,2 -1.5,-1.5 -0.5,-2 -2.5,1.5 -0.5,-0.5 1,-3 -3,-1.5 3.5,-4 v -2 l -1.5,-1.5 5,-4 h 2.5 l 2.5,-1.5 v 0 m 115.46875,-44.125 -0.0312,0.28125 -0.4375,-2.125 -0.5,-2.03125 0.5,7.5 -6,1 -8,-5 -9,-9 -2,0.5 -6,-7 -10,-10 h -3 l 0.5,-9.5 -3,-9.5 -4.5,-11.5 v -8 l 2,-1 -3.5,-8.5 -2,2 h -4.5 l -6,-1.5 -0.5,0.5 -24,2 -11.5,-6.5 -2.5,0.5 -8.5,-4 h -6 l -5,-1.5 -0.5,-2 -6.5,-8.5 -9.78125,-6.125 -0.60937,192.3125 L 635,959 l 3.46875,0.375 -0.0625,-0.34375 L 639,959 l 1.5,-3 0.5,-3.5 3.5,-3.5 2,2.5 2,-1.5 2.5,-8.5 2,0.5 -2,6.5 5,-7.5 -1.5,-3 1,-1.5 8,3.5 14,-1 6,3 0.5,3 9,10 h 7.5 l 6.5,-1.5 v 6 l 7,7.5 -2,6 5.5,2 -0.5,5 -1,3 6.5,-0.5 9,4.5 4.5,-1.5 h 11.5 l 15.5,-1 2,2 h 7 l 4,-3.5 10.5,11 4.5,2.5 0.5,2 7.5,8.5 -2.5,7.5 -5,0.5 -5.5,-3.5 h -4.5 l -3,-4.5 -5.5,-5 -5.5,1.5 7.5,8.5 1,6.5 -4.5,5.5 3,23 -8,7.5 -0.5,8 0.5,7.5 -9,4.5 2.5,5.5 h 9 l 0.5,-3.5 7,-5.5 2,-0.5 3.5,-7 3.5,-4.5 16.5,-1 3.5,-2 -4,-1 v -2 l 4.5,-1.5 13,-5.5 h 4 l 1,-3 -2,-2 -2,-4 -4,2 -7,1.5 -3,-2 5,-8 5,-6 17.5,-9 4.5,-1 0.5,1 7,-1.5 3.5,-2.5 -4.5,-2 1,-1.5 h 2.5 l 3.5,-3.5 2.09375,-1.6875 2.1875,-0.2187 0.69026,-0.3063 L 798.5,993.5"
         id="path1576"
         style="fill:#fefee9;fill-opacity:1;stroke:#636363;stroke-width:1px;stroke-opacity:0.50196078"
         inkscape:connector-curvature="0" />
      <path
         d="m 627.90528,763.40764 -0.37403,-0.50139 -0.3125,0.46875 -0.0937,-0.28125 L 627,763 l -51.5,68.5 -22,23 -0.5,78.1875 h 0.0312 L 553,932.9375 V 933 l 5,-1 2,13.5 3,2 7.5,0.5 2.5,2 3,0.5 5,-2.5 7.5,1 6.5,6.5 -0.5,1.5 5,-3 7,5.5 5,0.5 6,-5 h 1.5 l 2,3 h 9.5 l 2,1.5 3.46875,-1.125"
         id="path1548"
         style="fill:#fefee9;fill-opacity:1;stroke:#636363;stroke-width:1px;stroke-opacity:0.50196078"
         inkscape:connector-curvature="0" />
      <path
         d="m 796,990.5 -1,5.5 54,8.5 10,-5.5 z"
         id="path1567"
         style="fill:#fefee9;fill-opacity:1;stroke:none"
         inkscape:connector-curvature="0" />
    </g>
  </g>
</svg>
